<svg xmlns="http://www.w3.org/2000/svg" width="1050" height="720" viewBox="0 0 1050 720">
<rect width="1050" height="720" fill="white"/>
<text x="525" y="42" text-anchor="middle" font-family="Arial" font-size="26" font-weight="700">WorkflowGuard AI Architecture</text>
<text x="525" y="70" text-anchor="middle" font-family="Arial" font-size="15" fill="#555">Traceable AI workflow evaluation before sensitive production data</text>
<defs><marker id="a" markerWidth="10" markerHeight="10" refX="9" refY="5" orient="auto"><path d="M0,0 L10,5 L0,10 Z" fill="#333"/></marker></defs>
<g font-family="Arial" font-size="16">
<rect x="365" y="105" width="320" height="48" rx="10" fill="#f7f7f7" stroke="#333"/><text x="525" y="135" text-anchor="middle">User Task</text>
<line x1="525" y1="153" x2="525" y2="182" stroke="#333" stroke-width="2" marker-end="url(#a)"/>
<rect x="365" y="182" width="320" height="48" rx="10" fill="#f7f7f7" stroke="#333"/><text x="525" y="212" text-anchor="middle">Task Intake</text>
<line x1="525" y1="230" x2="525" y2="259" stroke="#333" stroke-width="2" marker-end="url(#a)"/>
<rect x="365" y="259" width="320" height="48" rx="10" fill="#f7f7f7" stroke="#333"/><text x="525" y="289" text-anchor="middle">Task Classification</text>
<line x1="525" y1="307" x2="525" y2="336" stroke="#333" stroke-width="2" marker-end="url(#a)"/>
<rect x="365" y="336" width="320" height="48" rx="10" fill="#f7f7f7" stroke="#333"/><text x="525" y="366" text-anchor="middle">Execution Plan</text>
<line x1="525" y1="384" x2="525" y2="413" stroke="#333" stroke-width="2" marker-end="url(#a)"/>
<rect x="365" y="413" width="320" height="48" rx="10" fill="#f7f7f7" stroke="#333"/><text x="525" y="443" text-anchor="middle">Capability Router</text>
<line x1="525" y1="461" x2="525" y2="490" stroke="#333" stroke-width="2" marker-end="url(#a)"/>
<rect x="365" y="490" width="320" height="48" rx="10" fill="#f7f7f7" stroke="#333"/><text x="525" y="520" text-anchor="middle">Demo Execution</text>
<line x1="525" y1="538" x2="525" y2="567" stroke="#333" stroke-width="2" marker-end="url(#a)"/>
<rect x="365" y="567" width="320" height="48" rx="10" fill="#f7f7f7" stroke="#333"/><text x="525" y="597" text-anchor="middle">Report + Trace Log</text>
<rect x="70" y="405" width="245" height="130" rx="10" fill="#fff" stroke="#777" stroke-dasharray="6 4"/>
<text x="192" y="435" text-anchor="middle" font-weight="700">Public-safe Boundary</text>
<text x="192" y="465" text-anchor="middle" font-size="14">synthetic examples only</text>
<text x="192" y="490" text-anchor="middle" font-size="14">no sensitive records</text>
<text x="192" y="515" text-anchor="middle" font-size="14">no live system access</text>
<rect x="735" y="405" width="245" height="130" rx="10" fill="#fff" stroke="#777" stroke-dasharray="6 4"/>
<text x="857" y="435" text-anchor="middle" font-weight="700">Claim Boundary</text>
<text x="857" y="465" text-anchor="middle" font-size="14">prototype only</text>
<text x="857" y="490" text-anchor="middle" font-size="14">no guarantee claim</text>
<text x="857" y="515" text-anchor="middle" font-size="14">human review required</text>
</g>
<text x="525" y="690" text-anchor="middle" font-family="Arial" font-size="14" fill="#666">Design principle: show the workflow, not the private case.</text>
</svg>
